<?xml version="1.0" encoding="utf-8"?>
<!-- Generator: Adobe Illustrator 15.0.0, SVG Export Plug-In . SVG Version: 6.00 Build 0)  -->
<!DOCTYPE svg PUBLIC "-//W3C//DTD SVG 1.1 Tiny//EN" "http://www.w3.org/Graphics/SVG/1.1/DTD/svg11-tiny.dtd">
<svg version="1.1" baseProfile="tiny" id="Layer_1" xmlns="http://www.w3.org/2000/svg" xmlns:xlink="http://www.w3.org/1999/xlink"
	 x="0px" y="0px" width="334.783px" height="126px" viewBox="0 0 334.783 126" overflow="inherit" xml:space="preserve">
<g>
	<path fill="#FFFFFF" d="M210.586,121.67c-1.375,2.382-4.75,4.33-7.5,4.33H3.087c-2.75,0-3.875-1.948-2.5-4.33l13.475-23.34
		c1.375-2.382,4.75-4.33,7.5-4.33h200.001c2.75,0,3.875,1.948,2.5,4.33L210.586,121.67z"/>
	<path fill="#FFFFFF" d="M30.222,79c-2.75,0-3.875-1.948-2.5-4.33l13.477-23.34c1.375-2.381,4.75-4.33,7.5-4.33h282.998
		c2.75,0,3.875,1.949,2.5,4.33l-13.474,23.34c-1.375,2.382-4.75,4.33-7.5,4.33H30.222z"/>
	<path fill="#FFFFFF" d="M56.78,33c-2.75,0-3.875-1.949-2.5-4.33L68.333,4.33c1.375-2.381,4.75-4.33,7.5-4.33h137
		c2.75,0,3.875,1.949,2.5,4.33L201.28,28.67c-1.375,2.381-4.75,4.33-7.5,4.33H56.78z"/>
</g>
</svg>
